<svg width="40" height="32" viewBox="0 0 40 32" fill="none" xmlns="http://www.w3.org/2000/svg">
<path d="M38.5714 1.66242e-06H28.3571C26.1652 1.66242e-06 24.0223 0.642188 22.1786 1.85369L20 3.27925L17.8214 1.85369C15.9795 0.64242 13.8343 -0.00119383 11.6429 1.66242e-06H1.42857C0.638393 1.66242e-06 0 0.651297 0 1.45745V27.3271C0 28.1332 0.638393 28.7845 1.42857 28.7845H11.6429C13.8348 28.7845 15.9777 29.4267 17.8214 30.6382L19.8036 31.9408C19.8616 31.9772 19.9286 32 19.9955 32C20.0625 32 20.1295 31.9818 20.1875 31.9408L22.1696 30.6382C24.0179 29.4267 26.1652 28.7845 28.3571 28.7845H38.5714C39.3616 28.7845 40 28.1332 40 27.3271V1.45745C40 0.651297 39.3616 1.66242e-06 38.5714 1.66242e-06ZM11.6429 25.5053H3.21429V3.27925H11.6429C13.2232 3.27925 14.7589 3.73926 16.0848 4.60917L18.2634 6.03473L18.5714 6.23968V27.2815C16.4464 26.1156 14.0714 25.5053 11.6429 25.5053ZM36.7857 25.5053H28.3571C25.9286 25.5053 23.5536 26.1156 21.4286 27.2815V6.23968L21.7366 6.03473L23.9152 4.60917C25.2411 3.73926 26.7768 3.27925 28.3571 3.27925H36.7857V25.5053ZM14.8616 9.10902H6.56696C6.39286 9.10902 6.25 9.26388 6.25 9.45061V11.5001C6.25 11.6869 6.39286 11.8417 6.56696 11.8417H14.8571C15.0312 11.8417 15.1741 11.6869 15.1741 11.5001V9.45061C15.1786 9.26388 15.0357 9.10902 14.8616 9.10902ZM24.8214 9.45061V11.5001C24.8214 11.6869 24.9643 11.8417 25.1384 11.8417H33.4286C33.6027 11.8417 33.7455 11.6869 33.7455 11.5001V9.45061C33.7455 9.26388 33.6027 9.10902 33.4286 9.10902H25.1384C24.9643 9.10902 24.8214 9.26388 24.8214 9.45061ZM14.8616 15.4853H6.56696C6.39286 15.4853 6.25 15.6402 6.25 15.8269V17.8765C6.25 18.0632 6.39286 18.218 6.56696 18.218H14.8571C15.0312 18.218 15.1741 18.0632 15.1741 17.8765V15.8269C15.1786 15.6402 15.0357 15.4853 14.8616 15.4853ZM33.433 15.4853H25.1384C24.9643 15.4853 24.8214 15.6402 24.8214 15.8269V17.8765C24.8214 18.0632 24.9643 18.218 25.1384 18.218H33.4286C33.6027 18.218 33.7455 18.0632 33.7455 17.8765V15.8269C33.75 15.6402 33.6071 15.4853 33.433 15.4853Z" fill="white"/>
</svg>
