<svg width="40" height="40" viewBox="0 0 40 40" fill="none" xmlns="http://www.w3.org/2000/svg">
<path d="M23.6333 7.12676C23.9536 7.21233 24.2267 7.42158 24.3926 7.7085C24.5586 7.99542 24.6038 8.33651 24.5183 8.65676L17.8967 33.3734C17.8107 33.6939 17.6009 33.9671 17.3135 34.1329C17.0261 34.2987 16.6846 34.3436 16.3642 34.2576C16.0437 34.1716 15.7705 33.9619 15.6047 33.6745C15.4389 33.3871 15.394 33.0456 15.48 32.7251L22.1033 8.00842C22.1459 7.84983 22.2192 7.70118 22.3193 7.57095C22.4193 7.44072 22.5439 7.33148 22.6862 7.24945C22.8284 7.16742 22.9854 7.11421 23.1482 7.09287C23.311 7.07154 23.4764 7.08248 23.635 7.12509M27.405 12.2134C27.6267 11.967 27.9372 11.8188 28.2682 11.8013C28.5992 11.7838 28.9236 11.8985 29.17 12.1201L32.065 14.7268C33.2933 15.8301 34.31 16.7468 35.01 17.5768C35.7433 18.4518 36.2667 19.3901 36.2667 20.5501C36.2667 21.7084 35.745 22.6468 35.01 23.5201C34.31 24.3518 33.2933 25.2684 32.065 26.3718L29.17 28.9784C28.9236 29.2003 28.5991 29.3152 28.2679 29.2979C27.9368 29.2805 27.6261 29.1324 27.4042 28.8859C27.1823 28.6395 27.0674 28.315 27.0847 27.9838C27.1021 27.6527 27.2502 27.342 27.4967 27.1201L30.325 24.5751C31.6383 23.3934 32.5233 22.5918 33.0967 21.9118C33.6467 21.2568 33.7667 20.8751 33.7667 20.5484C33.7667 20.2234 33.6467 19.8418 33.0967 19.1868C32.5233 18.5051 31.6383 17.7034 30.325 16.5234L27.4967 13.9784C27.3744 13.8686 27.275 13.7358 27.2042 13.5875C27.1333 13.4393 27.0924 13.2785 27.0837 13.1144C27.075 12.9504 27.0988 12.7862 27.1537 12.6313C27.2085 12.4764 27.2933 12.3338 27.4033 12.2118M12.5033 13.9784C12.7498 13.7565 12.898 13.4458 12.9153 13.1147C12.9327 12.7835 12.8177 12.459 12.5958 12.2126C12.3739 11.9662 12.0632 11.818 11.7321 11.8006C11.4009 11.7833 11.0764 11.8982 10.83 12.1201L7.935 14.7268C6.70667 15.8301 5.69 16.7468 4.99 17.5768C4.25667 18.4518 3.73334 19.3901 3.73334 20.5501C3.73334 21.7084 4.255 22.6468 4.99 23.5201C5.69 24.3518 6.70667 25.2684 7.935 26.3718L10.83 28.9784C11.0764 29.2003 11.4009 29.3152 11.7321 29.2979C12.0632 29.2805 12.3739 29.1324 12.5958 28.8859C12.8177 28.6395 12.9327 28.315 12.9153 27.9838C12.898 27.6527 12.7498 27.342 12.5033 27.1201L9.675 24.5751C8.36167 23.3934 7.47667 22.5918 6.90334 21.9118C6.35334 21.2568 6.23334 20.8751 6.23334 20.5484C6.23334 20.2234 6.35334 19.8418 6.90334 19.1868C7.47667 18.5051 8.36167 17.7034 9.675 16.5234L12.5033 13.9784Z" fill="white"/>
</svg>
