<svg width="48" height="48" viewBox="0 0 48 48" fill="none" xmlns="http://www.w3.org/2000/svg">
<mask id="mask0_268_502" style="mask-type:luminance" maskUnits="userSpaceOnUse" x="7" y="2" width="34" height="44">
<path d="M24 44C24 44 39 32 39 19C39 10.716 32.284 4 24 4C15.716 4 9 10.716 9 19C9 32 24 44 24 44Z" fill="white" stroke="white" stroke-width="4" stroke-linejoin="round"/>
<path d="M24 25C24.7879 25 25.5681 24.8448 26.2961 24.5433C27.0241 24.2417 27.6855 23.7998 28.2426 23.2426C28.7998 22.6855 29.2417 22.0241 29.5433 21.2961C29.8448 20.5681 30 19.7879 30 19C30 18.2121 29.8448 17.4319 29.5433 16.7039C29.2417 15.9759 28.7998 15.3145 28.2426 14.7574C27.6855 14.2002 27.0241 13.7583 26.2961 13.4567C25.5681 13.1552 24.7879 13 24 13C22.4087 13 20.8826 13.6321 19.7574 14.7574C18.6321 15.8826 18 17.4087 18 19C18 20.5913 18.6321 22.1174 19.7574 23.2426C20.8826 24.3679 22.4087 25 24 25Z" fill="black" stroke="black" stroke-width="4" stroke-linejoin="round"/>
</mask>
<g mask="url(#mask0_268_502)">
<path d="M0 0H48V48H0V0Z" fill="#EEEBDE"/>
</g>
</svg>
