<svg width="48" height="49" viewBox="0 0 48 49" fill="none" xmlns="http://www.w3.org/2000/svg">
<path fill-rule="evenodd" clip-rule="evenodd" d="M24 0C37.255 0 48 10.9689 48 24.5C48 38.0311 37.255 49 24 49C10.745 49 0 38.0311 0 24.5C0 10.9689 10.745 0 24 0ZM16.9503 15.2533C21.9532 15.2533 26.0083 19.3938 26.0083 24.5C26.0083 29.6062 21.9532 33.7467 16.9503 33.7467C11.9483 33.7467 7.89323 29.6062 7.89323 24.5C7.89323 19.3938 11.9483 15.2533 16.9503 15.2533ZM31.4433 15.984C33.9748 15.984 36.0263 19.7966 36.0263 24.5C36.0263 29.2034 33.9748 33.016 31.4433 33.016C28.9118 33.016 26.8603 29.2034 26.8603 24.5C26.8603 19.7966 28.9118 15.984 31.4433 15.984ZM38.5108 16.7137C39.3919 16.7137 40.1068 20.1993 40.1068 24.5C40.1068 28.8007 39.3919 32.2863 38.5108 32.2863C37.6288 32.2863 36.914 28.8007 36.914 24.5C36.914 20.1993 37.6288 16.7137 38.5108 16.7137Z" fill="white"/>
</svg>
